<?xml version="1.0" encoding="utf-8"?>
<!-- Generator: Adobe Illustrator 16.0.0, SVG Export Plug-In . SVG Version: 6.00 Build 0)  -->
<!DOCTYPE svg PUBLIC "-//W3C//DTD SVG 1.1//EN" "http://www.w3.org/Graphics/SVG/1.1/DTD/svg11.dtd">
<svg version="1.1" id="Layer_1" xmlns="http://www.w3.org/2000/svg" xmlns:xlink="http://www.w3.org/1999/xlink" x="0px" y="0px"
	 width="200px" height="61.487px" viewBox="0 0 200 61.487" enable-background="new 0 0 200 61.487" xml:space="preserve">
<g>
	<path fill="#F50057" d="M48.381,48.615h-1.688V27.521c0-1.703-0.379-3.336-1.137-4.898s-1.777-2.91-3.059-4.043
		s-2.805-2.035-4.57-2.707s-3.609-1.008-5.531-1.008c-2.641,0-5.035,0.496-7.184,1.488s-3.871,2.461-5.168,4.406
		S18.1,24.958,18.1,27.521v21.094h-1.688V27.521c0-2.156,0.422-4.141,1.266-5.953s1.988-3.328,3.434-4.547s3.141-2.164,5.086-2.836
		s4.012-1.008,6.199-1.008c3.875,0,7.234,0.977,10.078,2.93c2.844-1.953,6.203-2.93,10.078-2.93c2.188,0,4.254,0.336,6.199,1.008
		s3.641,1.617,5.086,2.836s2.59,2.734,3.434,4.547s1.266,3.797,1.266,5.953v21.094H66.85V27.521c0-2.547-0.648-4.793-1.945-6.738
		s-3.02-3.418-5.168-4.418s-4.543-1.5-7.184-1.5c-3.313,0-6.203,0.781-8.672,2.344c0.359,0.313,0.758,0.719,1.195,1.219
		c2.141-1.25,4.633-1.875,7.477-1.875c1.734,0,3.367,0.25,4.898,0.75s2.867,1.207,4.008,2.121s2.043,2.066,2.707,3.457
		s0.996,2.938,0.996,4.641v21.094h-1.688V27.521c0-1.469-0.285-2.797-0.855-3.984s-1.355-2.164-2.355-2.93s-2.156-1.352-3.469-1.758
		s-2.727-0.609-4.242-0.609c-2.484,0-4.633,0.508-6.445,1.523c0.281,0.438,0.563,0.922,0.844,1.453
		c1.531-0.859,3.398-1.289,5.602-1.289c1.734,0,3.285,0.27,4.652,0.809s2.473,1.395,3.316,2.566s1.266,2.578,1.266,4.219v21.094
		H60.1V27.521c0-1.984-0.699-3.465-2.098-4.441s-3.215-1.465-5.449-1.465c-2.031,0-3.68,0.375-4.945,1.125
		c0.203,0.594,0.359,1.156,0.469,1.688c0.984-0.75,2.477-1.125,4.477-1.125c3.906,0,5.859,1.406,5.859,4.219v21.094h-1.688V27.521
		c0-0.453-0.074-0.84-0.223-1.16s-0.34-0.566-0.574-0.738s-0.543-0.309-0.926-0.41s-0.754-0.164-1.113-0.188
		s-0.805-0.035-1.336-0.035s-0.977,0.012-1.336,0.035s-0.73,0.086-1.113,0.188s-0.691,0.238-0.926,0.41s-0.426,0.418-0.574,0.738
		s-0.223,0.707-0.223,1.16V48.615z M45.006,27.521v21.094h-1.688V27.521c0-1.469-0.285-2.797-0.855-3.984s-1.355-2.164-2.355-2.93
		s-2.156-1.352-3.469-1.758s-2.727-0.609-4.242-0.609s-2.93,0.203-4.242,0.609s-2.469,0.992-3.469,1.758s-1.785,1.742-2.355,2.93
		s-0.855,2.516-0.855,3.984v21.094h-1.688V27.521c0-1.703,0.332-3.25,0.996-4.641s1.566-2.543,2.707-3.457s2.477-1.621,4.008-2.121
		s3.164-0.75,4.898-0.75s3.367,0.25,4.898,0.75s2.867,1.207,4.008,2.121s2.043,2.066,2.707,3.457S45.006,25.818,45.006,27.521z
		 M41.631,27.521v21.094h-1.688V27.521c0-1.984-0.699-3.465-2.098-4.441s-3.215-1.465-5.449-1.465s-4.051,0.488-5.449,1.465
		s-2.098,2.457-2.098,4.441v21.094h-1.688V27.521c0-1.641,0.422-3.047,1.266-4.219s1.949-2.027,3.316-2.566s2.918-0.809,4.652-0.809
		s3.285,0.27,4.652,0.809s2.473,1.395,3.316,2.566S41.631,25.88,41.631,27.521z M38.256,27.521v21.094h-1.688V27.521
		c0-0.453-0.074-0.84-0.223-1.16s-0.34-0.566-0.574-0.738s-0.543-0.309-0.926-0.41s-0.754-0.164-1.113-0.188
		s-0.805-0.035-1.336-0.035s-0.977,0.012-1.336,0.035s-0.73,0.086-1.113,0.188s-0.691,0.238-0.926,0.41s-0.426,0.418-0.574,0.738
		s-0.223,0.707-0.223,1.16v21.094h-1.688V27.521c0-2.813,1.953-4.219,5.859-4.219S38.256,24.708,38.256,27.521z"/>
	<path fill="#F50057" d="M72.756,14.865h1.688v33.75h-1.688V14.865z M76.131,14.865h1.688v33.75h-1.688V14.865z M79.506,14.865
		h1.688v33.75h-1.688V14.865z M82.881,14.865h1.688v33.75h-1.688V14.865z"/>
	<path fill="#F50057" d="M120.663,48.615h-1.688V27.521c0-1.703-0.379-3.336-1.137-4.898s-1.777-2.91-3.059-4.043
		s-2.805-2.035-4.57-2.707c-1.767-0.672-3.61-1.008-5.532-1.008c-2.641,0-5.035,0.496-7.183,1.488s-3.871,2.461-5.168,4.406
		s-1.945,4.199-1.945,6.762v21.094h-1.688V27.521c0-2.156,0.422-4.141,1.266-5.953s1.988-3.328,3.434-4.547s3.141-2.164,5.086-2.836
		s4.011-1.008,6.199-1.008c3.875,0,7.235,0.977,10.079,2.93c2.844-1.953,6.203-2.93,10.078-2.93c2.188,0,4.254,0.336,6.199,1.008
		s3.641,1.617,5.086,2.836s2.59,2.734,3.434,4.547s1.266,3.797,1.266,5.953v21.094h-1.688V27.521c0-2.547-0.648-4.793-1.945-6.738
		s-3.02-3.418-5.168-4.418s-4.543-1.5-7.184-1.5c-3.313,0-6.203,0.781-8.672,2.344c0.359,0.313,0.758,0.719,1.195,1.219
		c2.141-1.25,4.633-1.875,7.477-1.875c1.734,0,3.367,0.25,4.898,0.75s2.867,1.207,4.008,2.121s2.043,2.066,2.707,3.457
		s0.996,2.938,0.996,4.641v21.094h-1.688V27.521c0-1.469-0.285-2.797-0.855-3.984s-1.355-2.164-2.355-2.93s-2.156-1.352-3.469-1.758
		s-2.727-0.609-4.242-0.609c-2.484,0-4.633,0.508-6.445,1.523c0.281,0.438,0.563,0.922,0.844,1.453
		c1.531-0.859,3.398-1.289,5.602-1.289c1.734,0,3.285,0.27,4.652,0.809s2.473,1.395,3.316,2.566s1.266,2.578,1.266,4.219v21.094
		h-1.688V27.521c0-1.984-0.699-3.465-2.098-4.441s-3.215-1.465-5.449-1.465c-2.031,0-3.68,0.375-4.945,1.125
		c0.203,0.594,0.359,1.156,0.469,1.688c0.984-0.75,2.477-1.125,4.477-1.125c3.906,0,5.859,1.406,5.859,4.219v21.094h-1.688V27.521
		c0-0.453-0.074-0.84-0.223-1.16s-0.34-0.566-0.574-0.738s-0.543-0.309-0.926-0.41s-0.754-0.164-1.113-0.188
		s-0.805-0.035-1.336-0.035s-0.977,0.012-1.336,0.035s-0.73,0.086-1.113,0.188s-0.691,0.238-0.926,0.41s-0.426,0.418-0.574,0.738
		s-0.223,0.707-0.223,1.16V48.615z M117.288,27.521v21.094h-1.688V27.521c0-1.469-0.285-2.797-0.855-3.984s-1.355-2.164-2.355-2.93
		s-2.156-1.352-3.47-1.758c-1.313-0.406-2.727-0.609-4.242-0.609s-2.93,0.203-4.242,0.609c-1.313,0.406-2.469,0.992-3.469,1.758
		s-1.785,1.742-2.355,2.93s-0.855,2.516-0.855,3.984v21.094h-1.688V27.521c0-1.703,0.332-3.25,0.996-4.641s1.566-2.543,2.707-3.457
		s2.477-1.621,4.008-2.121c1.531-0.5,3.164-0.75,4.898-0.75s3.367,0.25,4.898,0.75c1.532,0.5,2.868,1.207,4.009,2.121
		s2.043,2.066,2.707,3.457S117.288,25.818,117.288,27.521z M113.913,27.521v21.094h-1.688V27.521c0-1.984-0.699-3.465-2.098-4.441
		c-1.399-0.977-3.216-1.465-5.45-1.465s-4.05,0.488-5.449,1.465s-2.098,2.457-2.098,4.441v21.094h-1.688V27.521
		c0-1.641,0.422-3.047,1.266-4.219s1.949-2.027,3.316-2.566c1.367-0.539,2.917-0.809,4.652-0.809s3.285,0.27,4.652,0.809
		c1.368,0.539,2.474,1.395,3.317,2.566S113.913,25.88,113.913,27.521z M110.538,27.521v21.094h-1.688V27.521
		c0-0.453-0.074-0.84-0.223-1.16s-0.34-0.566-0.574-0.738s-0.543-0.309-0.926-0.41s-0.754-0.164-1.113-0.188
		s-0.805-0.035-1.336-0.035s-0.977,0.012-1.336,0.035s-0.73,0.086-1.113,0.188s-0.691,0.238-0.926,0.41s-0.425,0.418-0.574,0.738
		s-0.223,0.707-0.223,1.16v21.094h-1.688V27.521c0-2.813,1.953-4.219,5.859-4.219C108.584,23.302,110.538,24.708,110.538,27.521z"/>
	<path fill="#F50057" d="M145.624,38.947c-0.984-2.289-1.477-4.691-1.477-7.207s0.492-4.918,1.477-7.207s2.305-4.262,3.961-5.918
		s3.629-2.977,5.918-3.961s4.691-1.477,7.207-1.477s4.918,0.492,7.207,1.477s4.262,2.305,5.918,3.961s2.977,3.629,3.961,5.918
		s1.477,4.691,1.477,7.207s-0.492,4.918-1.477,7.207s-2.305,4.262-3.961,5.918s-3.629,2.977-5.918,3.961s-4.691,1.477-7.207,1.477
		s-4.918-0.492-7.207-1.477s-4.262-2.305-5.918-3.961S146.608,41.236,145.624,38.947z M147.171,25.189
		c-0.891,2.086-1.336,4.27-1.336,6.551s0.445,4.465,1.336,6.551s2.09,3.883,3.598,5.391s3.305,2.707,5.391,3.598
		s4.27,1.336,6.551,1.336s4.465-0.445,6.551-1.336s3.883-2.09,5.391-3.598s2.707-3.305,3.598-5.391s1.336-4.27,1.336-6.551
		s-0.445-4.465-1.336-6.551s-2.09-3.883-3.598-5.391s-3.305-2.707-5.391-3.598s-4.27-1.336-6.551-1.336s-4.465,0.445-6.551,1.336
		s-3.883,2.09-5.391,3.598S148.062,23.103,147.171,25.189z M148.729,37.646c-0.805-1.875-1.207-3.844-1.207-5.906
		s0.402-4.031,1.207-5.906s1.883-3.488,3.234-4.84s2.965-2.43,4.84-3.234s3.844-1.207,5.906-1.207s4.031,0.402,5.906,1.207
		s3.488,1.883,4.84,3.234s2.43,2.965,3.234,4.84s1.207,3.844,1.207,5.906s-0.402,4.031-1.207,5.906s-1.883,3.488-3.234,4.84
		s-2.965,2.43-4.84,3.234s-3.844,1.207-5.906,1.207s-4.031-0.402-5.906-1.207s-3.488-1.883-4.84-3.234
		S149.534,39.521,148.729,37.646z M150.276,26.501c-0.711,1.664-1.066,3.41-1.066,5.238s0.355,3.574,1.066,5.238
		s1.672,3.102,2.883,4.313s2.648,2.172,4.313,2.883s3.41,1.066,5.238,1.066s3.574-0.355,5.238-1.066s3.102-1.672,4.313-2.883
		s2.172-2.648,2.883-4.313s1.066-3.41,1.066-5.238s-0.355-3.574-1.066-5.238s-1.672-3.102-2.883-4.313s-2.648-2.172-4.313-2.883
		s-3.41-1.066-5.238-1.066s-3.574,0.355-5.238,1.066s-3.102,1.672-4.313,2.883S150.987,24.837,150.276,26.501z M152.479,37.669
		c-1.055-1.813-1.582-3.789-1.582-5.93s0.527-4.117,1.582-5.93s2.488-3.246,4.301-4.301s3.789-1.582,5.93-1.582
		s4.117,0.527,5.93,1.582s3.246,2.488,4.301,4.301s1.582,3.789,1.582,5.93s-0.527,4.117-1.582,5.93s-2.488,3.246-4.301,4.301
		s-3.789,1.582-5.93,1.582s-4.117-0.527-5.93-1.582S153.534,39.482,152.479,37.669z M155.55,24.591
		c-1.977,1.984-2.965,4.367-2.965,7.148s0.988,5.164,2.965,7.148s4.363,2.977,7.16,2.977s5.184-0.992,7.16-2.977
		s2.965-4.367,2.965-7.148s-0.988-5.164-2.965-7.148s-4.363-2.977-7.16-2.977S157.526,22.607,155.55,24.591z M156.745,37.705
		c-1.648-1.648-2.473-3.637-2.473-5.965s0.824-4.316,2.473-5.965s3.637-2.473,5.965-2.473s4.316,0.824,5.965,2.473
		s2.473,3.637,2.473,5.965s-0.824,4.316-2.473,5.965s-3.637,2.473-5.965,2.473S158.394,39.353,156.745,37.705z M157.94,26.97
		c-1.32,1.32-1.98,2.91-1.98,4.77s0.66,3.449,1.98,4.77s2.91,1.98,4.77,1.98s3.449-0.66,4.77-1.98s1.98-2.91,1.98-4.77
		s-0.66-3.449-1.98-4.77s-2.91-1.98-4.77-1.98S159.261,25.65,157.94,26.97z"/>
</g>
</svg>
